<svg width="80" height="80" viewBox="0 0 80 80" fill="none" xmlns="http://www.w3.org/2000/svg">
<g opacity="0.8" filter="url(#filter0_d_8057_28496)">
<rect x="24" y="42" width="47" height="26" rx="13" fill="url(#paint0_linear_8057_28496)"/>
</g>
<rect x="24" y="42" width="47" height="26" rx="13" stroke="url(#paint1_linear_8057_28496)" stroke-width="0.5"/>
<ellipse cx="35.5" cy="40" rx="27.5" ry="28" fill="url(#paint2_linear_8057_28496)"/>
<g opacity="0.5">
<mask id="mask0_8057_28496" style="mask-type:alpha" maskUnits="userSpaceOnUse" x="8" y="12" width="56" height="56">
<ellipse cx="35.75" cy="39.8695" rx="27.75" ry="27.8695" fill="url(#paint3_linear_8057_28496)"/>
</mask>
<g mask="url(#mask0_8057_28496)">
<rect x="24" y="42" width="47" height="26" rx="13" stroke="url(#paint4_linear_8057_28496)" stroke-width="0.5"/>
</g>
</g>
<g filter="url(#filter1_f_8057_28496)">
<circle cx="36.25" cy="40.25" r="14.25" stroke="#0D5F73" stroke-width="2"/>
</g>
<circle cx="36.25" cy="39.25" r="13.75" stroke="white" stroke-width="3"/>
<g filter="url(#filter2_f_8057_28496)">
<path d="M43.0645 35.5383C43.6452 34.9576 43.6452 34.0162 43.0645 33.4355C42.4838 32.8548 41.5424 32.8548 40.9617 33.4355L36.3545 38.0427C35.7431 38.0088 35.1203 38.2254 34.6533 38.6925C33.7822 39.5635 33.7822 40.9757 34.6533 41.8467C35.5243 42.7178 36.9365 42.7178 37.8075 41.8467C38.2746 41.3797 38.4912 40.7569 38.4573 40.1455L43.0645 35.5383Z" fill="#0D5F73"/>
</g>
<path d="M43.0645 34.5383C43.6452 33.9576 43.6452 33.0162 43.0645 32.4355C42.4838 31.8548 41.5424 31.8548 40.9617 32.4355L36.3545 37.0427C35.7431 37.0088 35.1203 37.2254 34.6533 37.6925C33.7822 38.5635 33.7822 39.9757 34.6533 40.8467C35.5243 41.7178 36.9365 41.7178 37.8075 40.8467C38.2746 40.3797 38.4912 39.7569 38.4573 39.1455L43.0645 34.5383Z" fill="white"/>
<defs>
<filter id="filter0_d_8057_28496" x="22.5" y="40.5" width="50" height="29" filterUnits="userSpaceOnUse" color-interpolation-filters="sRGB">
<feFlood flood-opacity="0" result="BackgroundImageFix"/>
<feColorMatrix in="SourceAlpha" type="matrix" values="0 0 0 0 0 0 0 0 0 0 0 0 0 0 0 0 0 0 127 0" result="hardAlpha"/>
<feOffset/>
<feGaussianBlur stdDeviation="0.75"/>
<feComposite in2="hardAlpha" operator="out"/>
<feColorMatrix type="matrix" values="0 0 0 0 0.0705882 0 0 0 0 0.332863 0 0 0 0 0.415686 0 0 0 0.6 0"/>
<feBlend mode="normal" in2="BackgroundImageFix" result="effect1_dropShadow_8057_28496"/>
<feBlend mode="normal" in="SourceGraphic" in2="effect1_dropShadow_8057_28496" result="shape"/>
</filter>
<filter id="filter1_f_8057_28496" x="19.09" y="23.09" width="34.32" height="34.32" filterUnits="userSpaceOnUse" color-interpolation-filters="sRGB">
<feFlood flood-opacity="0" result="BackgroundImageFix"/>
<feBlend mode="normal" in="SourceGraphic" in2="BackgroundImageFix" result="shape"/>
<feGaussianBlur stdDeviation="0.955" result="effect1_foregroundBlur_8057_28496"/>
</filter>
<filter id="filter2_f_8057_28496" x="32.09" y="31.09" width="13.32" height="13.32" filterUnits="userSpaceOnUse" color-interpolation-filters="sRGB">
<feFlood flood-opacity="0" result="BackgroundImageFix"/>
<feBlend mode="normal" in="SourceGraphic" in2="BackgroundImageFix" result="shape"/>
<feGaussianBlur stdDeviation="0.955" result="effect1_foregroundBlur_8057_28496"/>
</filter>
<linearGradient id="paint0_linear_8057_28496" x1="47.5" y1="42" x2="47.5" y2="68" gradientUnits="userSpaceOnUse">
<stop stop-color="#0DD7F5"/>
<stop offset="1" stop-color="#0A5D71"/>
</linearGradient>
<linearGradient id="paint1_linear_8057_28496" x1="47.5" y1="42" x2="47.5" y2="68" gradientUnits="userSpaceOnUse">
<stop stop-color="#FEFEFF"/>
<stop offset="1" stop-color="#0B5E71"/>
</linearGradient>
<linearGradient id="paint2_linear_8057_28496" x1="35.5" y1="12" x2="35.5" y2="68" gradientUnits="userSpaceOnUse">
<stop stop-color="#05DFEC"/>
<stop offset="1" stop-color="#007192"/>
</linearGradient>
<linearGradient id="paint3_linear_8057_28496" x1="35.75" y1="12" x2="35.75" y2="67.739" gradientUnits="userSpaceOnUse">
<stop stop-color="#05DFEC"/>
<stop offset="1" stop-color="#007192"/>
</linearGradient>
<linearGradient id="paint4_linear_8057_28496" x1="47.5" y1="42" x2="47.5" y2="68" gradientUnits="userSpaceOnUse">
<stop stop-color="#FEFEFF"/>
<stop offset="1" stop-color="#0B5E71"/>
</linearGradient>
</defs>
</svg>
