<svg width="24" height="24" viewBox="0 0 24 24" fill="none" xmlns="http://www.w3.org/2000/svg">
<path d="M12 8.5V5.5" stroke="#444444" stroke-width="1.2"/>
<path d="M20.6 12.6H21.6666C22.6239 12.6 23.4 13.3761 23.4 14.3334V16.6668C23.4 17.6241 22.6239 18.4002 21.6666 18.4002H20.6V12.6Z" stroke="#444444" stroke-width="1.2"/>
<path d="M3.4 12.6H2.3334C1.37607 12.6 0.6 13.3761 0.6 14.3334V16.6668C0.6 17.6241 1.37607 18.4002 2.3334 18.4002H3.4V12.6Z" stroke="#444444" stroke-width="1.2"/>
<circle cx="12" cy="4" r="2" fill="#20BF61"/>
<mask id="path-5-inside-1_3231_10117" fill="white">
<path d="M3 13.4446C3 10.4376 5.43763 8 8.4446 8H15.5554C18.5624 8 21 10.4376 21 13.4446V16.5554C21 19.5624 18.5624 22 15.5554 22H8.4446C5.43763 22 3 19.5624 3 16.5554V13.4446Z"/>
</mask>
<path d="M8.4446 9.2H15.5554V6.8H8.4446V9.2ZM19.8 13.4446V16.5554H22.2V13.4446H19.8ZM15.5554 20.8H8.4446V23.2H15.5554V20.8ZM4.2 16.5554V13.4446H1.8V16.5554H4.2ZM8.4446 20.8C6.10037 20.8 4.2 18.8996 4.2 16.5554H1.8C1.8 20.2251 4.77489 23.2 8.4446 23.2V20.8ZM19.8 16.5554C19.8 18.8996 17.8996 20.8 15.5554 20.8V23.2C19.2251 23.2 22.2 20.2251 22.2 16.5554H19.8ZM15.5554 9.2C17.8996 9.2 19.8 11.1004 19.8 13.4446H22.2C22.2 9.77489 19.2251 6.8 15.5554 6.8V9.2ZM8.4446 6.8C4.77489 6.8 1.8 9.77489 1.8 13.4446H4.2C4.2 11.1004 6.10037 9.2 8.4446 9.2V6.8Z" fill="#444444" mask="url(#path-5-inside-1_3231_10117)"/>
<rect x="15" y="13" width="2" height="4" rx="1" fill="#444444"/>
<rect x="7" y="13" width="2" height="4" rx="1" fill="#444444"/>
</svg>
