<svg width="24" height="24" viewBox="0 0 24 24" fill="none" xmlns="http://www.w3.org/2000/svg">
<path d="M20.1248 12.1797V5.81589C20.1248 5.6539 20.0611 5.49854 19.9477 5.38399L16.7746 2.1789C16.6612 2.06435 16.5074 2 16.3471 2C16.3471 2 10.9912 2 6.54907 2C5.14074 2 4 3.13937 4 4.54769C4 6.90271 4 10.4242 4 13.05C4 15.41 4 17.973 4 19.8111C4 21.2195 5.14183 22.3594 6.55015 22.3594C7.98357 22.3594 9.26321 22.3594 11.0546 22.3594" stroke="#444444" stroke-width="1.2" stroke-linecap="round" stroke-linejoin="round"/>
<path d="M8.03125 11.1432H16.0937M8.03125 7.07129H12.0625" stroke="#20BF61" stroke-width="1.2" stroke-linecap="round" stroke-linejoin="round"/>
<path d="M18.0636 17.2078L19.0714 16.1898C19.5127 15.744 20.2283 15.744 20.6696 16.1898C21.1109 16.6356 21.1109 17.3583 20.6696 17.8041L19.6618 18.8221M18.0636 17.2078L15.0492 20.2526C14.8981 20.4052 14.7989 20.6024 14.7661 20.8155L14.5215 22.3999L16.0899 22.153C16.3011 22.1197 16.4962 22.0195 16.6472 21.8669L19.6618 18.8221M18.0636 17.2078L19.6618 18.8221" stroke="#20BF61" stroke-width="1.275" stroke-linecap="round" stroke-linejoin="round"/>
<path d="M16.0938 2V5.46109C16.0938 5.79842 16.3644 6.07187 16.6984 6.07187H20.125" stroke="#444444" stroke-width="1.275" stroke-linecap="round" stroke-linejoin="round"/>
</svg>
