<svg width="24" height="24" viewBox="0 0 24 24" fill="none" xmlns="http://www.w3.org/2000/svg">
<path fill-rule="evenodd" clip-rule="evenodd" d="M3.40002 4.19133C3.40002 2.7294 4.53809 1.49609 6.00002 1.49609H18C19.462 1.49609 20.6 2.72941 20.6 4.19133V19.9056C20.6 21.3676 19.462 22.6009 18 22.6009H6.00002C4.53809 22.6009 3.40002 21.3676 3.40002 19.9056V4.19133ZM6.00002 2.69609C5.25282 2.69609 4.60002 3.33892 4.60002 4.19133V19.9056C4.60002 20.7581 5.25282 21.4009 6.00002 21.4009H18C18.7473 21.4009 19.4 20.7581 19.4 19.9056V4.19133C19.4 3.33892 18.7473 2.69609 18 2.69609H6.00002Z" fill="#444444"/>
<path d="M9 18H15" stroke="#20BF61" stroke-width="1.2" stroke-linecap="round" stroke-linejoin="round"/>
</svg>
