<svg width="52" height="52" viewBox="0 0 52 52" fill="none" xmlns="http://www.w3.org/2000/svg">
<g id="ic/visual/32/category_pet" clip-path="url(#clip0_5702_190414)">
<g id="Group 1261157192">
<g id="Vector">
<path d="M9.99887 30.5645L21.0017 49.285H2.63135C1.02294 49.285 0.0231006 47.5376 0.838085 46.1509L9.99887 30.5645Z" fill="#5076FF"/>
<path d="M9.99887 30.5645H28.8409V47.2049C28.8409 48.3537 27.9096 49.285 26.7608 49.285H9.99887V30.5645Z" fill="#5076FF"/>
</g>
<g id="ic">
<path id="Subtract" d="M42.832 38.5879C48.6084 37.838 52.0234 33.8169 52.6622 27.9534C52.7866 26.8113 51.8405 25.877 50.6918 25.877H42.832V38.5879Z" fill="#69F8AF"/>
<g id="nose">
<path id="Intersect" d="M52.6599 27.9669C52.7844 26.8248 51.8383 25.8906 50.6895 25.8906L47.6602 25.8906C47.6602 28.4557 49.5713 30.5768 52.0548 30.9226C52.3434 30.0015 52.5459 29.0135 52.6599 27.9669Z" fill="#38D36A"/>
</g>
<rect id="Rectangle 8488" x="28.8555" y="25.7461" width="13.9836" height="12.8378" fill="#62C2FE"/>
<rect id="Rectangle 8489" x="28.8555" y="25.7461" width="13.9836" height="12.8378" fill="#62C2FE"/>
<path id="Subtract_2" d="M28.8555 11.8379C36.5784 11.8379 42.8391 18.0641 42.8391 25.7445L28.8555 25.7445L28.8555 11.8379Z" fill="#62C2FE"/>
<path id="Subtract_3" d="M28.8475 11.8379C18.4513 11.8379 10.0234 20.2193 10.0234 30.5583L28.8475 30.5583L28.8475 11.8379Z" fill="#62C2FE"/>
<path id="Subtract_4" d="M28.8475 47.2048C28.8475 48.3536 27.9128 49.2969 26.7708 49.1722C17.3517 48.1442 10.0234 40.2054 10.0234 30.5645L28.8475 30.5645L28.8475 47.2048Z" fill="#62C2FE"/>
<path id="Subtract_5" d="M15.7418 17.8692C15.7418 10.5685 19.6144 4.49674 24.7209 3.239C25.7992 2.97342 26.7272 3.87232 26.7797 4.98157L27.3906 17.8692L15.7418 17.8692Z" fill="#62C2FE"/>
<ellipse id="Ellipse 1969" cx="36.6474" cy="25.741" rx="2.15133" ry="2.13948" fill="white"/>
</g>
</g>
</g>
<defs>
<clipPath id="clip0_5702_190414">
<rect width="52" height="52" fill="white"/>
</clipPath>
</defs>
</svg>
