<svg width="52" height="52" viewBox="0 0 52 52" fill="none" xmlns="http://www.w3.org/2000/svg">
<path d="M10.3001 23.121C15.2516 23.121 20.0735 19.499 25.025 19.499C29.9765 19.499 34.7984 23.121 39.7499 23.121H46.8V29.6645C45.0471 28.8034 43.0722 28.3196 40.9827 28.3196C33.7343 28.3196 27.8569 34.1458 27.8569 41.3337C27.8569 41.6419 27.8689 41.9464 27.8893 42.249H22.2587L22.2754 41.952C22.2856 41.7484 22.2911 41.5411 22.2911 41.3337C22.2911 34.1458 16.4137 28.3196 9.16527 28.3196C7.11832 28.3196 5.18231 28.7847 3.45525 29.6122L3.25 23.121H10.3001Z" fill="#5076FF"/>
<path fill-rule="evenodd" clip-rule="evenodd" d="M25.3516 49.3965C37.9161 49.3965 48.1016 39.2101 48.1016 26.6465C48.1016 14.0829 37.9161 3.89648 25.3516 3.89648C12.787 3.89648 2.60156 14.0829 2.60156 26.6465C2.60156 39.2101 12.787 49.3965 25.3516 49.3965ZM25.3516 41.8132C33.7282 41.8132 40.5182 35.0222 40.5182 26.6465C40.5182 18.2708 33.7282 11.4798 25.3516 11.4798C16.9749 11.4798 10.1849 18.2708 10.1849 26.6465C10.1849 35.0222 16.9749 41.8132 25.3516 41.8132Z" fill="#38D36A"/>
<circle cx="25.3531" cy="27.3473" r="3.9" fill="#62C2FE"/>
</svg>
