<svg width="40" height="40" viewBox="0 0 40 40" fill="none" xmlns="http://www.w3.org/2000/svg">
<g id="ic/visual/32/comprehensive">
<g id="ico">
<path id="Rectangle 8624" d="M13 32.1429V33.5C13 35.433 14.567 37 16.5 37V37C18.433 37 20 35.433 20 33.5V3" stroke="#5076FF" stroke-width="2.5" stroke-linecap="round"/>
<g id="Group 1261157536">
<path id="Subtract" d="M13.3159 22.9282C12.7331 22.7641 12.2346 22.3348 11.8797 21.8203C11.1225 20.7227 9.96638 19.9176 8.60469 19.6155C7.98042 19.477 7.33328 19.477 6.70902 19.6155C5.15177 19.961 3.86334 20.9644 3.13304 22.3107C2.91592 22.711 2.51738 22.9998 2.0615 22.9998C1.45921 22.9998 0.967696 22.5113 1.00166 21.9108C1.5358 12.4719 8.97042 4.87531 18.3486 4.07031C15.4548 6.15972 13.3142 13.6126 13.3142 22.4862C13.3142 22.634 13.3147 22.7813 13.3159 22.9282Z" fill="#38D36A"/>
<path id="Subtract_2" d="M26.685 22.9282C26.6862 22.7813 26.6867 22.634 26.6867 22.4862C26.6867 13.6126 24.5461 6.15972 21.6523 4.07031C31.0305 4.87531 38.4651 12.4719 38.9993 21.9108C39.0332 22.5113 38.5417 22.9998 37.9394 22.9998C37.4835 22.9998 37.085 22.711 36.8679 22.3107C36.1376 20.9644 34.8492 19.961 33.2919 19.6155C32.6676 19.477 32.0205 19.477 31.3962 19.6155C30.0345 19.9176 28.8784 20.7227 28.1212 21.8203C27.7663 22.3348 27.2678 22.7641 26.685 22.9282Z" fill="#38D36A"/>
<path id="Intersect" fill-rule="evenodd" clip-rule="evenodd" d="M26.6865 22.9285C26.6877 22.7815 26.6883 22.6341 26.6883 22.4863C26.6883 13.6129 24.5477 6.16014 21.654 4.07054C21.1098 4.02384 20.5591 4 20.0028 4C19.4461 4 18.895 4.02387 18.3505 4.07063C15.4568 6.16035 13.3164 13.613 13.3164 22.4863C13.3164 22.634 13.317 22.7813 13.3182 22.9282C13.4829 22.9747 13.6543 23 13.8312 23C14.6336 23 15.325 22.4796 15.7808 21.8193C16.538 20.7223 17.6938 19.9177 19.055 19.6157C19.6792 19.4772 20.3264 19.4772 20.9506 19.6157C22.3118 19.9177 23.4676 20.7223 24.2247 21.8193C24.6806 22.4796 25.372 23 26.1744 23C26.3509 23 26.522 22.9748 26.6865 22.9285Z" fill="#69F8AF"/>
</g>
</g>
</g>
</svg>
