<svg width="52" height="52" viewBox="0 0 52 52" fill="none" xmlns="http://www.w3.org/2000/svg">
<g id="car">
<g id="ic">
<path id="Rectangle 8503" d="M9.50341 17.9271C10.1152 12.2623 14.8974 7.96875 20.5952 7.96875H29.8775C35.3503 7.96875 40.015 11.9386 40.8902 17.3409L41.8398 23.2031H8.93359L9.50341 17.9271Z" fill="#69F8AF"/>
<path id="Subtract" fill-rule="evenodd" clip-rule="evenodd" d="M34.2578 27.2988C36.6137 27.2988 38.5234 25.389 38.5234 23.0332C38.5234 20.6774 36.6137 18.7676 34.2578 18.7676C31.902 18.7676 29.9922 20.6774 29.9922 23.0332C29.9922 25.389 31.902 27.2988 34.2578 27.2988ZM34.2549 25.5896C35.6684 25.5896 36.8143 24.4438 36.8143 23.0303C36.8143 21.6168 35.6684 20.4709 34.2549 20.4709C32.8414 20.4709 31.6955 21.6168 31.6955 23.0303C31.6955 24.4438 32.8414 25.5896 34.2549 25.5896Z" fill="#5076FF"/>
<g id="Group 1261157178">
<path id="Rectangle 8504" d="M4.78125 35.8184H11.4844V41.1621C11.4844 42.9225 10.0573 44.3496 8.29688 44.3496H7.96875C6.20834 44.3496 4.78125 42.9225 4.78125 41.1621V35.8184Z" fill="#5076FF"/>
<path id="Rectangle 8505" d="M39.5156 35.8184H46.2188V41.1621C46.2188 42.9225 44.7917 44.3496 43.0313 44.3496H42.7031C40.9427 44.3496 39.5156 42.9225 39.5156 41.1621V35.8184Z" fill="#5076FF"/>
</g>
<path id="Rectangle 8502" d="M4.78125 27.6719C4.78125 24.1511 7.63544 21.2969 11.1562 21.2969H39.8438C43.3646 21.2969 46.2188 24.1511 46.2188 27.6719V39.2031C46.2188 40.0833 45.5052 40.7969 44.625 40.7969H6.375C5.4948 40.7969 4.78125 40.0833 4.78125 39.2031L4.78125 27.6719Z" fill="#38D36A"/>
<circle id="Ellipse 1980" cx="11.4492" cy="31.3027" r="3.35156" fill="white"/>
<circle id="Ellipse 1981" cx="39.6289" cy="31.3027" r="3.35156" fill="white"/>
</g>
</g>
</svg>
