<svg width="40" height="40" viewBox="0 0 40 40" fill="none" xmlns="http://www.w3.org/2000/svg">
<path d="M11 7.04088V14.5909V15.5H24L14.6752 6.37085C14.105 5.81262 13.3388 5.5 12.5409 5.5C11.6899 5.5 11 6.18987 11 7.04088Z" fill="#69F8AF"/>
<path d="M9.95041 14.6938L5.16962 9.74083C4.71265 9.2674 4.0829 9 3.4249 9C2.08567 9 1 10.0857 1 11.4249V22.0769C1 24.2436 2.75642 26 4.92308 26H37.5191C38.337 26 39 25.337 39 24.5191C39 19.4072 34.856 15.2632 29.7441 15.2632H11.2914C10.7856 15.2632 10.3016 15.0576 9.95041 14.6938Z" fill="#38D36A"/>
<path d="M26.876 21H11V33.5901C11 34.9211 12.0789 36 13.4099 36C14.0611 36 14.6846 35.7364 15.1384 35.2693L27.52 22.5235C28.073 21.9542 27.6696 21 26.876 21Z" fill="#69F8AF"/>
<mask id="mask0_7552_93168" style="mask-type:alpha" maskUnits="userSpaceOnUse" x="11" y="21" width="17" height="15">
<path d="M26.876 21H11V35.3388C11 35.7039 11.2961 36 11.6612 36C13.4303 36 15.1241 35.284 16.3568 34.0151L27.52 22.5235C28.073 21.9542 27.6696 21 26.876 21Z" fill="#69F8AF"/>
</mask>
<g mask="url(#mask0_7552_93168)">
<rect x="6" y="20" width="24" height="6" fill="#2A5EF5"/>
</g>
</svg>
