<svg width="156" height="28" viewBox="0 0 156 28" fill="none" xmlns="http://www.w3.org/2000/svg">
<g clip-path="url(#clip0_2460_83285)">
<mask id="mask0_2460_83285" style="mask-type:luminance" maskUnits="userSpaceOnUse" x="0" y="9" width="10" height="17">
<path d="M0.446722 9.91609C0.156031 11.2357 0.290995 22.572 0.397409 23.8838C0.467486 24.847 0.877568 25.41 2.01438 25.3867C9.93572 25.2602 12.0147 15.7082 7.12224 11.2098C6.33841 10.4894 5.38328 9.89801 4.2335 9.49776C3.6573 9.29634 2.70477 9.00195 1.89239 9.00195C1.19681 9.00195 0.599854 9.22145 0.449318 9.91609" fill="white"/>
</mask>
<g mask="url(#mask0_2460_83285)">
<path d="M0.160522 8.89357L0.00195312 25.4119L12.0132 25.5272L12.1717 9.00887L0.160522 8.89357Z" fill="url(#paint0_linear_2460_83285)"/>
</g>
<mask id="mask1_2460_83285" style="mask-type:luminance" maskUnits="userSpaceOnUse" x="9" y="0" width="10" height="15">
<path d="M10.1327 0.934776C9.8706 2.13039 9.99778 12.4235 10.0886 13.6165C10.1561 14.4893 10.5247 14.998 11.5551 14.9851C18.7497 14.8663 20.6392 6.18978 16.1957 2.10973C15.4846 1.45898 14.6125 0.921864 13.5743 0.557758C13.0474 0.371832 12.1858 0.103271 11.4486 0.103271C10.8102 0.103271 10.2729 0.309856 10.1327 0.934776Z" fill="white"/>
</mask>
<g mask="url(#mask1_2460_83285)">
<path d="M9.87346 -0.00183621L9.72949 14.9955L20.6377 15.1003L20.7817 0.102878L9.87346 -0.00183621Z" fill="url(#paint1_linear_2460_83285)"/>
</g>
<mask id="mask2_2460_83285" style="mask-type:luminance" maskUnits="userSpaceOnUse" x="11" y="9" width="12" height="19">
<path d="M11.7525 10.1976C11.4202 11.7005 11.5786 24.6327 11.698 26.133C11.7862 27.2356 12.243 27.8709 13.5381 27.8502C22.5781 27.7056 24.9556 16.8057 19.3727 11.6746C18.4799 10.856 17.3794 10.1795 16.0791 9.72499C15.4147 9.49 14.3272 9.1543 13.4058 9.1543C12.6064 9.1543 11.9238 9.40736 11.7499 10.1976" fill="white"/>
</mask>
<g mask="url(#mask2_2460_83285)">
<path d="M11.4192 9.02767L11.2383 27.8699L24.952 28.0016L25.1329 9.15932L11.4192 9.02767Z" fill="url(#paint2_linear_2460_83285)"/>
</g>
<path d="M60.4792 15.8425H56.0228V14.04H54.0295V14.1821C54.0295 14.4868 54.1541 14.6934 54.4058 14.807V15.8451H49.9339C49.7366 15.8451 49.5731 15.9122 49.4407 16.0465C49.3058 16.1808 49.2383 16.346 49.2383 16.5397C49.2383 16.7334 49.3058 16.9116 49.4407 17.0459C49.5731 17.1801 49.7366 17.2447 49.9339 17.2447H60.4818C60.6791 17.2447 60.8426 17.1775 60.9775 17.0459C61.1151 16.9116 61.18 16.7411 61.18 16.5397C61.18 16.3383 61.1151 16.1808 60.9775 16.0465C60.8426 15.9122 60.6765 15.8451 60.4818 15.8451" fill="#00854A"/>
<path d="M59.1324 20.0026H53.1109C52.8306 20.0026 52.693 19.8631 52.693 19.5868V18.0607H50.6582V18.1975C50.6582 18.5022 50.7906 18.7062 51.0475 18.807V19.9612C51.0475 20.9115 51.5822 21.3867 52.6463 21.3867H59.1298C59.3141 21.3867 59.4776 21.3195 59.6203 21.1853C59.7683 21.0536 59.8409 20.8883 59.8409 20.692C59.8409 20.5087 59.7683 20.3486 59.6203 20.2092C59.4776 20.0697 59.3141 20 59.1298 20" fill="#00854A"/>
<path d="M50.7027 14.8999C50.8325 14.9103 50.9648 14.8948 51.105 14.8586C51.689 14.683 52.1925 14.4816 52.6052 14.2492C53.0179 14.0168 53.3864 13.7818 53.7108 13.5416C54.3441 13.1052 54.8554 12.5913 55.2448 12C55.6341 12.5913 56.148 13.1052 56.7761 13.5416C57.1031 13.7818 57.4743 14.0168 57.8921 14.2492C58.3126 14.479 58.8083 14.683 59.3845 14.8586C59.5247 14.8948 59.6596 14.9103 59.7868 14.8999C60.0282 14.8844 60.2047 14.7605 60.3137 14.541C60.4175 14.3292 60.4175 14.1201 60.3137 13.9161C60.2203 13.7611 60.0619 13.6449 59.8439 13.57C59.2755 13.3944 58.7824 13.1827 58.3567 12.9322C57.9337 12.6843 57.5755 12.4235 57.277 12.1549C56.4672 11.4371 56.0571 10.5797 56.039 9.5907V9.42285H54.0301V9.57263C54.0301 9.68625 54.0508 9.78179 54.0846 9.86443C54.1209 9.94706 54.1962 10.0452 54.3078 10.1562C54.3078 10.7734 53.9392 11.4396 53.1943 12.1524C52.8985 12.4209 52.5455 12.6817 52.1354 12.9296C51.7279 13.1801 51.2296 13.3919 50.643 13.5675C50.4224 13.6423 50.2615 13.7586 50.1706 13.9135C50.0668 14.1175 50.0668 14.3267 50.1706 14.5384C50.2822 14.7605 50.4587 14.8819 50.7001 14.8974" fill="#00854A"/>
<path d="M72.4654 12.878H71.4194V9.42542H69.5117V9.57519C69.5117 9.87474 69.6415 10.0762 69.901 10.1872V20.7798C69.901 20.9838 69.9763 21.1569 70.1242 21.3066C70.2696 21.4538 70.4539 21.5287 70.6641 21.5287C70.8743 21.5287 71.043 21.4538 71.1936 21.3066C71.3415 21.1594 71.4142 20.9838 71.4142 20.7798V14.3034H72.4602V20.7643C72.4602 20.9683 72.538 21.1465 72.6912 21.2989C72.8469 21.4512 73.0208 21.5287 73.2258 21.5287C73.4309 21.5287 73.6229 21.4512 73.7761 21.2989C73.9292 21.1491 74.0071 20.9709 74.0071 20.7643V9.42542H72.4602V12.878H72.4654Z" fill="#00854A"/>
<path d="M68.5777 10.5358H66.5584V9.34277H64.861V10.5358H62.7405C62.5355 10.5358 62.3694 10.6004 62.2396 10.7346C62.1046 10.8689 62.0449 11.0316 62.0449 11.2149C62.0449 11.3983 62.1072 11.5584 62.2396 11.6927C62.3694 11.8295 62.5355 11.8941 62.7405 11.8941H63.2103C62.9871 12.1472 62.8002 12.4312 62.6549 12.7463C62.468 13.1491 62.3745 13.5726 62.3745 14.0142C62.3745 14.4557 62.4628 14.8922 62.6419 15.2924C62.8158 15.6875 63.0546 16.0413 63.366 16.346C63.6541 16.6404 63.9967 16.878 64.3964 17.0536C64.7961 17.2266 65.227 17.317 65.6941 17.317C66.1613 17.317 66.574 17.2266 66.9685 17.0536C67.363 16.8754 67.7082 16.6404 68.0067 16.346C68.3129 16.0413 68.5517 15.6901 68.723 15.2924C68.8969 14.8947 68.9826 14.4687 68.9826 14.0142C68.9826 13.5597 68.8891 13.1491 68.7101 12.7463C68.5699 12.4312 68.3856 12.1472 68.1624 11.8941H68.5777C68.762 11.8941 68.9281 11.8295 69.0656 11.6927C69.2058 11.5584 69.2733 11.4009 69.2733 11.2149C69.2733 11.029 69.2032 10.8715 69.0656 10.7346C68.9281 10.6004 68.762 10.5358 68.5777 10.5358ZM67.3267 14.7346C67.2306 14.9774 67.1087 15.184 66.9503 15.3596C66.7816 15.5455 66.587 15.6875 66.3716 15.7882C66.1561 15.8915 65.9277 15.9406 65.6967 15.9406C65.445 15.9406 65.2088 15.8915 64.9908 15.7882C64.7727 15.6875 64.5859 15.5455 64.4276 15.3596C64.2692 15.1865 64.1446 14.9774 64.059 14.7346C63.9708 14.4945 63.924 14.2388 63.924 13.9729C63.924 13.7069 63.9708 13.4538 64.059 13.2111C64.1446 12.9709 64.2666 12.7618 64.4276 12.5862C64.5859 12.4028 64.7727 12.2582 64.9908 12.1549C65.2088 12.0542 65.445 12.0026 65.6967 12.0026C65.9277 12.0026 66.1561 12.0542 66.3716 12.1549C66.587 12.2556 66.7816 12.4002 66.9503 12.5862C67.1087 12.7618 67.2332 12.9709 67.3267 13.2111C67.4201 13.4538 67.4642 13.7043 67.4642 13.9729C67.4642 14.2414 67.4201 14.4971 67.3267 14.7346Z" fill="#00854A"/>
<path d="M86.958 18.4919H82.499V16.5087H84.3678C85.4163 16.5087 85.9432 16.0387 85.9432 15.0936V9.82568H83.9499V9.96255C83.9499 10.2698 84.0693 10.4713 84.3081 10.5746V11.7676H79.0704V9.82827H77.0642V9.96513C77.0642 10.2724 77.1887 10.4738 77.4405 10.5771V15.0962C77.4405 16.0413 77.9622 16.5113 79.0004 16.5113H80.8847V18.4945H76.4127C76.218 18.4945 76.0519 18.5565 75.917 18.6882C75.7794 18.8173 75.7119 18.9826 75.7119 19.1866C75.7119 19.3906 75.7794 19.5455 75.917 19.6798C76.0519 19.8115 76.218 19.8786 76.4127 19.8786H86.958C87.1553 19.8786 87.3188 19.8115 87.4512 19.6798C87.5887 19.5455 87.6536 19.3802 87.6536 19.1866C87.6536 18.9929 87.5861 18.8173 87.4512 18.6882C87.3162 18.5565 87.1553 18.4945 86.958 18.4945M79.4909 15.1375C79.2132 15.1375 79.0704 14.9955 79.0704 14.7088V13.1698H84.3081V14.7088C84.3081 14.9955 84.1705 15.1375 83.8902 15.1375H79.4883H79.4909Z" fill="#00854A"/>
<path d="M97.1037 9.42542V9.5752C97.1037 9.87475 97.2283 10.0762 97.48 10.1872V12.6249H95.2116C95.1857 12.5552 95.1597 12.488 95.126 12.4261C94.9884 12.142 94.7911 11.8812 94.5342 11.6436H95.4478C95.6243 11.6436 95.7748 11.5791 95.902 11.4525C96.0266 11.3286 96.0863 11.1788 96.0863 11.0032C96.0863 10.8379 96.0266 10.6856 95.902 10.5539C95.7722 10.4196 95.6243 10.3525 95.4478 10.3525H93.0522V9.23175H91.2691V10.3525H88.8735C88.7074 10.3525 88.5569 10.4196 88.4271 10.5539C88.2973 10.6882 88.2324 10.8379 88.2324 11.0032C88.2324 11.1788 88.2973 11.3286 88.4271 11.4525C88.5569 11.5765 88.7074 11.6436 88.8735 11.6436H89.7456C89.4912 11.8838 89.2862 12.1446 89.146 12.4261C88.9851 12.7411 88.902 13.1001 88.902 13.4977C88.902 13.8954 88.9877 14.2673 89.146 14.6159C89.3069 14.9619 89.5457 15.2692 89.8494 15.5378C90.1375 15.796 90.4801 16 90.8746 16.1472C91.2691 16.2944 91.6948 16.3693 92.149 16.3693C92.6032 16.3693 93.0133 16.2944 93.4026 16.1472C93.7919 15.9974 94.1345 15.796 94.433 15.5378C94.7418 15.2692 94.9728 14.9619 95.1285 14.6159C95.2298 14.3964 95.2921 14.1665 95.331 13.929H97.4852V15.703C97.4852 15.9225 97.5657 16.1136 97.7214 16.2711C97.8797 16.4261 98.0718 16.5061 98.295 16.5061C98.5182 16.5061 98.7077 16.4287 98.866 16.2711C99.0191 16.111 99.0996 15.9225 99.0996 15.703V9.42284H97.1089L97.1037 9.42542ZM93.3065 14.603C93.0029 14.9103 92.6161 15.0678 92.1438 15.0678C91.6714 15.0678 91.2665 14.9128 90.9602 14.603C90.654 14.2931 90.5008 13.9212 90.5008 13.4848C90.5008 13.0484 90.654 12.6817 90.9602 12.3744C91.2665 12.0697 91.6584 11.9199 92.1438 11.9199C92.6291 11.9199 93.0029 12.0697 93.3065 12.3744C93.6076 12.6817 93.7581 13.051 93.7581 13.4848C93.7581 13.9186 93.6076 14.2931 93.3065 14.603Z" fill="#00854A"/>
<path d="M90.4596 17.1182C90.4596 17.4229 90.579 17.6269 90.8334 17.7302V19.9639C90.8334 20.9167 91.3603 21.3919 92.4088 21.3919H97.5349C98.5756 21.3919 99.0947 20.9167 99.0947 19.9639V16.9839H90.457V17.1208L90.4596 17.1182ZM92.4529 18.2828H97.4959V19.6566C97.4959 19.9329 97.348 20.0723 97.0495 20.0723H92.8968C92.5983 20.0723 92.4529 19.9355 92.4529 19.6566V18.2828Z" fill="#00854A"/>
<path d="M30.3023 9.23952H25.7109V21.725H30.3023C34.0943 21.725 36.8455 19.1091 36.8455 15.5042C36.8455 11.8993 34.2163 9.23694 30.3023 9.23694M34.6263 15.4887C34.6263 18.1123 32.8744 19.8115 30.24 19.8115H27.9249V11.153H30.24C32.9549 11.153 34.6263 12.785 34.6263 15.4913" fill="#00854A"/>
<path d="M45.7836 15.264C46.6011 14.7088 47.141 13.6062 47.141 12.4442C47.141 10.4351 45.524 9.2395 42.8144 9.2395H37.8389V21.725H42.9C45.9627 21.725 47.7924 20.3899 47.7924 18.1588C47.7924 16.8212 47.1358 15.8735 45.7836 15.264ZM41.9864 14.3628C41.5789 14.4609 41.3324 14.7088 41.2727 15.0884C41.2233 15.3777 41.2882 15.6824 41.4492 15.9019C41.5737 16.0749 41.7502 16.1911 41.9553 16.2195C42.2434 16.2686 42.5574 16.284 42.8948 16.297C43.8837 16.3434 44.9271 16.3848 45.3917 17.2576C45.6694 17.774 45.6304 18.448 45.293 18.9335C44.9426 19.437 44.26 19.7418 43.2504 19.8012C43.1232 19.8063 42.9909 19.8115 42.8455 19.8115H40.0528V11.153H42.5808C44.2548 11.153 44.9245 11.6307 44.9245 12.643C44.9245 13.1982 44.7116 13.7095 44.2912 14.0142C43.907 14.2879 43.3568 14.2957 42.8273 14.3008C42.5886 14.3008 42.2511 14.3086 41.9864 14.3628Z" fill="#00854A"/>
<path d="M115.641 12.9296H114.089V9.27826H112.041V9.4332C112.041 9.73533 112.168 9.9445 112.425 10.0581V20.8109C112.425 21.0278 112.508 21.2189 112.674 21.3841C112.838 21.5494 113.032 21.632 113.25 21.632C113.469 21.632 113.674 21.5494 113.842 21.3841C114.006 21.2189 114.089 21.0278 114.089 20.8109V14.4171H115.641C115.849 14.4171 116.028 14.3422 116.176 14.195C116.321 14.0504 116.396 13.8774 116.396 13.6785C116.396 13.4797 116.321 13.2938 116.176 13.1491C116.028 13.002 115.849 12.9296 115.641 12.9296Z" fill="#4FB84F"/>
<path d="M110.577 16.2685H106.907C106.613 16.2685 106.466 16.1213 106.466 15.8295V11.2718H109.977C110.177 11.2718 110.343 11.202 110.483 11.06C110.621 10.9154 110.688 10.7527 110.688 10.5642C110.688 10.3757 110.618 10.1975 110.483 10.0555C110.346 9.91347 110.177 9.84375 109.977 9.84375H104.431V9.99869C104.431 10.3008 104.558 10.51 104.815 10.621V16.2376C104.815 17.1982 105.344 17.6811 106.406 17.6811H110.574C110.771 17.6811 110.94 17.6113 111.078 17.4745C111.215 17.3376 111.283 17.1698 111.283 16.9709C111.283 16.7824 111.213 16.6172 111.078 16.4751C110.94 16.3331 110.771 16.2634 110.574 16.2634" fill="#4FB84F"/>
<path d="M124.044 11.0342C123.702 10.714 123.299 10.461 122.835 10.2776C122.37 10.0943 121.877 9.99872 121.355 9.99872C120.834 9.99872 120.338 10.0917 119.871 10.2776C119.401 10.461 118.996 10.714 118.656 11.0342C118.316 11.3648 118.044 11.7469 117.846 12.1808C117.646 12.6146 117.548 13.0794 117.548 13.5804C117.548 14.0814 117.649 14.5333 117.846 14.9671C118.046 15.4035 118.316 15.7831 118.656 16.1136C118.996 16.4442 119.404 16.6998 119.871 16.878C120.341 17.0562 120.836 17.1466 121.355 17.1466C121.874 17.1466 122.37 17.0588 122.835 16.878C123.299 16.6972 123.702 16.4442 124.044 16.1136C124.397 15.7831 124.67 15.4035 124.87 14.9671C125.072 14.5333 125.168 14.071 125.168 13.5804C125.168 13.0897 125.069 12.6146 124.87 12.1808C124.672 11.7469 124.397 11.3648 124.044 11.0342ZM123.356 14.43C123.247 14.6934 123.092 14.9258 122.892 15.1246C122.695 15.3312 122.464 15.4913 122.204 15.6049C121.942 15.7185 121.662 15.7753 121.358 15.7753C121.054 15.7753 120.774 15.7185 120.512 15.6049C120.252 15.4913 120.019 15.3312 119.808 15.1246C119.619 14.9258 119.468 14.6959 119.357 14.43C119.243 14.1666 119.186 13.8825 119.186 13.5804C119.186 13.2783 119.243 12.9813 119.357 12.7153C119.468 12.4519 119.619 12.2221 119.808 12.0233C120.019 11.8141 120.252 11.654 120.512 11.5429C120.774 11.4293 121.054 11.3725 121.358 11.3725C121.662 11.3725 121.945 11.4293 122.204 11.5429C122.464 11.6566 122.695 11.8167 122.892 12.0233C123.092 12.2221 123.247 12.4519 123.356 12.7153C123.465 12.9787 123.52 13.2679 123.52 13.5804C123.52 13.8928 123.465 14.164 123.356 14.43Z" fill="#4FB84F"/>
<path d="M126.308 9.4332C126.308 9.73533 126.435 9.9445 126.692 10.0581V20.8109C126.692 21.0278 126.772 21.2189 126.933 21.3841C127.094 21.5494 127.289 21.632 127.517 21.632C127.746 21.632 127.94 21.5494 128.101 21.3841C128.262 21.2189 128.342 21.0278 128.342 20.8109V9.27826H126.31V9.4332H126.308Z" fill="#4FB84F"/>
<path d="M136.929 13.6656H137.84V16.1524C137.84 16.3616 137.917 16.5423 138.073 16.6973C138.229 16.8522 138.411 16.9322 138.621 16.9322C138.831 16.9322 139.026 16.8548 139.184 16.6973C139.34 16.5423 139.418 16.359 139.418 16.1524V9.2757H137.453V9.43064C137.453 9.73277 137.58 9.94193 137.837 10.0556V12.2479H136.926C136.726 12.2479 136.557 12.3177 136.42 12.4597C136.282 12.6017 136.215 12.7721 136.215 12.9684C136.215 13.1647 136.285 13.3196 136.42 13.4565C136.557 13.5933 136.726 13.663 136.926 13.663" fill="#4FB84F"/>
<path d="M136.532 16.1679C136.664 16.0362 136.732 15.8761 136.732 15.6875C136.732 15.5094 136.664 15.3467 136.532 15.2072C136.399 15.0652 136.239 14.9929 136.049 14.9929H133.119C132.833 14.9929 132.693 14.8457 132.693 14.5539V13.663H135.608V9.71466H131.655C131.465 9.71466 131.305 9.78438 131.17 9.92641C131.037 10.0684 130.97 10.2285 130.97 10.4093C130.97 10.5901 131.037 10.7579 131.17 10.8896C131.305 11.0213 131.465 11.0885 131.655 11.0885H134.043V12.3047H131.112V14.9206C131.112 15.8838 131.595 16.3641 132.563 16.3641H136.046C136.236 16.3641 136.397 16.2996 136.529 16.1653" fill="#4FB84F"/>
<path d="M133.83 17.4254C133.809 17.4254 133.793 17.4151 133.773 17.4151C133.594 17.4151 133.43 17.4874 133.29 17.6269C133.147 17.7689 133.077 17.929 133.077 18.1072C133.077 18.2957 133.147 18.4584 133.29 18.5952C133.43 18.7321 133.594 18.7992 133.773 18.7992C133.793 18.7992 133.809 18.7889 133.83 18.7889V18.7992H140.373V20.9503C140.373 21.1775 140.456 21.3712 140.622 21.5313C140.788 21.6914 140.991 21.7715 141.227 21.7715C141.463 21.7715 141.647 21.6914 141.808 21.5313C141.969 21.3712 142.05 21.1775 142.05 20.9503V17.4125H133.83V17.4229V17.4254Z" fill="#4FB84F"/>
<path d="M140.442 16.142C140.442 16.3512 140.523 16.532 140.684 16.6947C140.845 16.8548 141.037 16.9348 141.255 16.9348C141.473 16.9348 141.647 16.8548 141.808 16.6947C141.969 16.532 142.049 16.3512 142.049 16.142V9.27826H140.442V16.142Z" fill="#4FB84F"/>
<path d="M145.577 10.5952V15.561C145.577 16.5242 146.106 17.0045 147.17 17.0045H153.783C153.973 17.0045 154.139 16.9348 154.282 16.8005C154.424 16.6636 154.495 16.501 154.495 16.3124C154.495 16.1239 154.424 15.9716 154.282 15.8321C154.142 15.6901 153.973 15.6178 153.783 15.6178H147.668C147.386 15.6178 147.243 15.4784 147.243 15.1943V14.1046H153.669C153.861 14.1046 154.022 14.04 154.155 13.9057C154.287 13.774 154.354 13.6139 154.354 13.4254C154.354 13.2369 154.287 13.0871 154.155 12.9425C154.022 12.8005 153.861 12.7308 153.669 12.7308H147.243V11.2175H153.698C153.887 11.2175 154.051 11.1452 154.188 11.0058C154.326 10.8638 154.393 10.7011 154.393 10.51C154.393 10.3318 154.323 10.1717 154.188 10.0297C154.051 9.89024 153.887 9.81793 153.698 9.81793H145.192V9.97287C145.192 10.275 145.32 10.4842 145.577 10.5952Z" fill="#4FB84F"/>
<path d="M155.795 18.7218C155.655 18.5953 155.488 18.5307 155.289 18.5307H144.523C144.315 18.5307 144.144 18.5953 144.011 18.7218C143.879 18.8509 143.812 19.0213 143.812 19.2383C143.812 19.4371 143.879 19.6049 144.011 19.7418C144.144 19.8787 144.315 19.9458 144.523 19.9458H155.289C155.486 19.9458 155.655 19.8761 155.795 19.7418C155.932 19.6049 156 19.4371 156 19.2383C156 19.0213 155.932 18.8509 155.795 18.7218Z" fill="#4FB84F"/>
</g>
<defs>
<linearGradient id="paint0_linear_2460_83285" x1="9.75556" y1="17.3059" x2="0.0410023" y2="17.2126" gradientUnits="userSpaceOnUse">
<stop stop-color="#F47920"/>
<stop offset="0.1" stop-color="#F47920"/>
<stop offset="0.27" stop-color="#F17320"/>
<stop offset="0.49" stop-color="#E86223"/>
<stop offset="0.75" stop-color="#DA4727"/>
<stop offset="1" stop-color="#C9252C"/>
</linearGradient>
<linearGradient id="paint1_linear_2460_83285" x1="9.96689" y1="7.52194" x2="18.6666" y2="7.60546" gradientUnits="userSpaceOnUse">
<stop stop-color="#14B1E7"/>
<stop offset="0.59" stop-color="#0883C6"/>
<stop offset="1" stop-color="#0061AF"/>
</linearGradient>
<linearGradient id="paint2_linear_2460_83285" x1="10.7182" y1="18.25" x2="23.5677" y2="18.3733" gradientUnits="userSpaceOnUse">
<stop stop-color="#8DC63F"/>
<stop offset="0.14" stop-color="#87C340"/>
<stop offset="0.32" stop-color="#76BE43"/>
<stop offset="0.52" stop-color="#5BB448"/>
<stop offset="0.74" stop-color="#35A74F"/>
<stop offset="0.97" stop-color="#059757"/>
<stop offset="1" stop-color="#009559"/>
</linearGradient>
<clipPath id="clip0_2460_83285">
<rect width="156" height="28" fill="white"/>
</clipPath>
</defs>
</svg>
