<svg width="52" height="52" viewBox="0 0 52 52" fill="none" xmlns="http://www.w3.org/2000/svg">
<g id="ic/visual/32/category_golf">
<g id="ic">
<ellipse id="Ellipse 1956" cx="23.0306" cy="41.7489" rx="16.0266" ry="6.37003" fill="#38D36A"/>
<path id="Union" d="M12.793 5.80664V27.8685H41.4132C43.8087 27.8685 44.9732 24.905 43.2323 23.2394L37.1217 17.3929C36.79 17.0756 36.79 16.541 37.1217 16.2237L43.1709 10.4358C44.9118 8.77022 43.7473 5.80664 41.3518 5.80664H12.793Z" fill="#69F8AF"/>
<g id="Vector">
<path d="M14.9586 42.8903C15.7124 42.8903 16.4133 42.7921 16.9967 42.6237V39.9718C16.4133 39.8034 15.7124 39.7052 14.9586 39.7052C14.149 39.7052 13.4005 39.8183 12.793 40.0103V42.5852C13.4005 42.7772 14.149 42.8903 14.9586 42.8903Z" fill="#5076FF"/>
<path d="M16.9967 40.6152V5.82001C16.9967 4.81492 16.0556 4 14.8948 4C13.734 4 12.793 4.81492 12.793 5.82001V40.6152H16.9967Z" fill="#5076FF"/>
</g>
<ellipse id="Ellipse 1977" cx="30.9334" cy="40.7647" rx="1.83964" ry="1.83888" fill="white"/>
</g>
</g>
</svg>
