<svg width="52" height="52" viewBox="0 0 52 52" fill="none" xmlns="http://www.w3.org/2000/svg">
<path d="M45.994 27.2862C45.994 33.2535 45.0524 39.5557 41.9576 44.7995C41.8856 44.9251 41.7717 45.0148 41.6817 45.1224C41.6637 45.1403 41.6517 45.1523 41.6397 45.1643C41.3518 45.4094 40.908 45.2121 40.908 44.8354V44.7995L41.4118 38.0669C41.4298 37.8217 41.4298 37.5885 41.4238 37.3613C41.4238 37.2836 41.4118 37.2058 41.4058 37.1281C41.1839 34.5391 39.2407 32.4762 36.8296 32.4762H14.3863C11.9633 32.4762 10.014 34.569 9.80411 37.158C9.79812 37.2357 9.79212 37.3135 9.78612 37.3912C9.77413 37.6603 9.78613 37.9413 9.81612 38.2402L10.5718 45.3616C10.5718 45.7442 10.098 45.9535 9.82212 45.6845C9.79813 45.6546 9.76814 45.6306 9.74415 45.6007C9.59421 45.4513 9.42027 45.3137 9.32431 45.1344C6.58338 39.9443 5.13194 33.995 5.00599 28.1353C5.00599 27.8542 5 27.5732 5 27.2922C5 15.8897 11.5255 7.9612 21.5176 6.3169C22.6451 6.12556 23.8207 6.02392 25.0322 6.00598C25.1881 6 25.3441 6 25.506 6C25.8659 6 26.2257 6.00598 26.5736 6.02392C27.7911 6.07175 28.9606 6.20927 30.0882 6.43051C33.6568 7.11812 36.7696 8.6249 39.2646 10.8193C43.511 14.5444 46 20.2606 46 27.2982L45.994 27.2862Z" fill="#38D36A"/>
<path d="M45.9919 27.2806C45.9919 33.248 45.0503 39.5501 41.9555 44.7939C41.8835 44.9195 41.7696 45.0092 41.6796 45.1168C41.6616 45.1347 41.6496 45.1467 41.6376 45.1587C41.3497 45.4038 40.9059 45.2065 40.9059 44.8298V44.7939L41.4097 38.0613C41.4277 37.8161 41.4277 37.5829 41.4217 37.3557C41.4217 37.278 41.4097 37.2003 41.4037 37.1225C41.1818 34.5335 39.2386 32.4706 36.8275 32.4706H14.3843C11.9612 32.4706 10.012 34.5634 9.80203 37.1524C9.79604 37.2301 9.79004 37.3079 9.78404 37.3856C9.77205 37.6547 9.78405 37.9357 9.81404 38.2347L10.5698 45.356C10.5698 45.7387 10.0959 45.9479 9.82005 45.6789C9.79605 45.649 9.76606 45.625 9.74207 45.5952C9.59213 45.4457 9.41819 45.3081 9.32223 45.1288C6.5813 39.9388 5.12986 33.9894 5.00391 28.1297C11.6913 29.2957 17.1192 29.3554 21.5095 28.632C22.763 28.4227 23.9325 28.1536 25.0241 27.8307C25.5579 27.6693 26.0737 27.4959 26.5655 27.3105C27.855 26.8262 29.0246 26.2582 30.0801 25.6124C36.0058 22.0189 38.4169 16.1951 39.2566 10.8018C43.5029 14.5268 45.9919 20.243 45.9919 27.2806Z" fill="#38D36A"/>
<path d="M25.0263 6V33.6661H21.5117V6.31092C22.6393 6.11959 23.8148 6.01794 25.0263 6Z" fill="white"/>
<path d="M30.081 6.42796V33.6755H26.5664V6.02734C27.7839 6.07518 28.9535 6.2127 30.081 6.43393V6.42796Z" fill="white"/>
<path d="M43.7399 35.3385L41.9586 44.8097C41.8566 44.9352 41.7486 45.0548 41.6407 45.1684C41.5867 45.2402 41.5207 45.306 41.4548 45.3777C41.3828 45.4614 41.2868 45.4913 41.1969 45.4853C41.0229 45.4794 40.867 45.3359 40.885 45.1326L40.909 44.8396L41.4128 38.071C41.4308 37.8259 41.4308 37.5927 41.4248 37.3655C41.2868 34.8422 39.3076 33.6703 36.8306 33.6703H14.3873C11.8983 33.6703 9.91307 34.896 9.79312 37.3894C9.78112 37.6585 9.79313 37.9395 9.82312 38.2385L10.5788 45.3598L10.6088 45.6348C10.6448 45.9457 10.2609 46.1251 10.039 45.8979C9.97305 45.8262 9.90107 45.7544 9.8291 45.6767C9.80511 45.6468 9.77512 45.6229 9.75113 45.593C9.61318 45.4375 9.46925 45.282 9.3313 45.1266L7.84388 35.201C7.532 33.1501 9.12138 31.3145 11.1966 31.3145H40.4172C42.5403 31.3145 44.1477 33.2398 43.7519 35.3265L43.7399 35.3385Z" fill="#5076FF"/>
<path d="M42.3529 36.0747C42.011 37.8805 41.6812 42.9509 41.1954 45.4741C41.0214 45.4682 40.8655 45.3247 40.8835 45.1214L40.9075 44.8284L41.3333 38.0539C41.3513 37.8087 41.3513 37.5755 41.3453 37.3483C41.2074 34.825 39.3061 33.6651 36.8291 33.6651H14.3858C11.8968 33.6651 9.99552 34.8848 9.86957 37.3782C9.85758 37.6473 9.86956 37.9283 9.89955 38.2273L10.5773 45.3545L10.6073 45.6296C10.6433 45.9405 10.2594 46.1199 10.0375 45.8927C10.0375 45.8927 8.58006 35.5844 8.88595 34.251C9.18583 32.9236 9.92355 32.6725 11.0871 32.5709C12.2446 32.4632 39.1621 32.4991 40.6376 32.5709C42.113 32.6366 42.8147 33.6591 42.3649 36.0747H42.3529Z" fill="#5076FF"/>
</svg>
