<svg width="52" height="52" viewBox="0 0 52 52" fill="none" xmlns="http://www.w3.org/2000/svg">
<path d="M19 5C19 4.44772 19.4477 4 20 4H44C44.5523 4 45 4.44772 45 5V41C45 41.5523 44.5523 42 44 42H20C19.4477 42 19 41.5523 19 41V5Z" fill="#5076FF"/>
<path fill-rule="evenodd" clip-rule="evenodd" d="M19 10H45V12H19V10Z" fill="white"/>
<path fill-rule="evenodd" clip-rule="evenodd" d="M33 4V10H31V4H33Z" fill="white"/>
<path d="M7 10C7 8.89543 7.89543 8 9 8H38C39.6569 8 41 9.34315 41 11V45C41 46.6569 39.6569 48 38 48H9C7.89543 48 7 47.1046 7 46V10Z" fill="#38D36A"/>
<path d="M26.2877 33.8352L23.2753 34.996L23.2746 33.8396L25.5848 31.6702L25.3881 30.1397C25.2745 29.256 25.2166 28.3564 25.216 27.466L25.2156 26.783C23.0192 27.0524 18.001 29.5968 18.001 29.5968L18 28.1031L18.1305 28.0087C20.5307 26.2711 22.9123 24.3527 25.2127 22.3067L25.2125 20.5486C25.2448 19.2457 25.4518 17.053 26.4758 17.0008C26.4878 17.0003 26.5001 16.9999 26.5121 17C27.7397 17.0007 27.7772 20.1869 27.7774 20.5502L27.7786 22.3082C30.0817 24.357 32.4658 26.2782 34.8683 28.0186L34.999 28.1132L35 29.6069C35 29.6069 29.9784 27.0565 27.7817 26.7847L27.7821 27.4677C27.7827 28.358 27.726 29.2575 27.6136 30.1412L27.4189 31.6715L29.7321 33.8436L29.7328 35L26.7189 33.8356L26.2877 33.8352Z" fill="white" stroke="white" stroke-width="0.5" stroke-miterlimit="10"/>
<path d="M7 10C7 8.89543 7.89543 8 9 8H12V48H9C7.89543 48 7 47.1046 7 46V10Z" fill="#69F8AF"/>
<path d="M11 8H12V48H11V8Z" fill="white"/>
<path d="M30 42H37V44H30V42Z" fill="white"/>
</svg>
