<svg width="52" height="52" viewBox="0 0 52 52" fill="none" xmlns="http://www.w3.org/2000/svg">
<path d="M9.27273 33H15.5977L33.2136 32.9586H40.6364C45.3618 32.4718 49 28.4946 49 23.6786C49 18.6036 44.8391 14.4296 39.7164 14.3675H38.9845L38.7441 13.6736C36.6741 7.88393 31.1332 4 24.9545 4C16.8836 4 10.3182 10.5043 10.3182 18.5V20.5714H9.27273C5.81227 20.5714 3 23.3575 3 26.7857C3 30.2139 5.81227 33 9.27273 33Z" fill="#69F8AF"/>
<mask id="mask0_7552_93402" style="mask-type:alpha" maskUnits="userSpaceOnUse" x="3" y="4" width="46" height="29">
<path d="M9.27273 33H15.5977L33.2136 32.9586H40.6364C45.3618 32.4718 49 28.4946 49 23.6786C49 18.6036 44.8391 14.4296 39.7164 14.3675H38.9845L38.7441 13.6736C36.6741 7.88393 31.1332 4 24.9545 4C16.8836 4 10.3182 10.5043 10.3182 18.5V20.5714H9.27273C5.81227 20.5714 3 23.3575 3 26.7857C3 30.2139 5.81227 33 9.27273 33Z" fill="#69F8AF"/>
</mask>
<g mask="url(#mask0_7552_93402)">
<circle cx="16" cy="19" r="23" fill="#38D36A"/>
</g>
<path d="M27.2037 22L17 37.8275H24.7963V38.2175V39.3008V40.3842V48L29.7125 40.3733L30.41 39.3008L31.1075 38.2175L35 32.1725H27.2037V22Z" fill="#5076FF"/>
</svg>
