<svg width="52" height="52" viewBox="0 0 52 52" fill="none" xmlns="http://www.w3.org/2000/svg">
<g id="ic/52/pd_card_health_fill">
<g id="ico">
<path id="Rectangle 9017" d="M10 10C10 8.89543 10.8954 8 12 8H33.5858C33.851 8 34.1054 8.10536 34.2929 8.29289L41.7071 15.7071C41.8946 15.8946 42 16.149 42 16.4142V42C42 43.1046 41.1046 44 40 44H12C10.8954 44 10 43.1046 10 42V10Z" fill="#38D36A"/>
<path id="Vector" d="M28 16.9977C28 14.7884 26.2653 13 24.1224 13C23.1088 13 22.1905 13.3998 21.5034 14.059C20.8095 13.4068 19.8912 13 18.8776 13C16.7347 13 15 14.7884 15 16.9977C15 18.0637 15.4082 19.0316 16.068 19.7539C16.1497 19.8381 16.2313 19.9223 16.3129 19.9994L21.3673 25L26.6735 20.0064C27.483 19.27 28 18.197 28 16.9977Z" fill="white"/>
<rect id="Rectangle 9018" x="15" y="31.5" width="22" height="2.5" rx="0.5" fill="#69F8AF"/>
<rect id="Rectangle 9019" x="15" y="37.5" width="22" height="2.5" rx="0.5" fill="#69F8AF"/>
<path id="Rectangle 9022" d="M34 8L42 16H35C34.4477 16 34 15.5523 34 15V8Z" fill="#5076FF"/>
</g>
</g>
</svg>
