<svg width="52" height="52" viewBox="0 0 52 52" fill="none" xmlns="http://www.w3.org/2000/svg">
<g id="ic/visual/52/dentist">
<g id="ico">
<g id="tooth">
<path id="Vector" d="M29.529 7.41352C28.3683 8.23903 27.2076 9.17426 25.8415 9.68107C25.8193 9.69151 25.7859 9.69674 25.7471 9.71241C25.7471 9.71241 24.8419 10.1513 22.9759 10.1513C21.1099 10.1513 20.1103 9.68107 20.1103 9.68107C18.7442 9.17426 17.5835 8.23903 16.4228 7.41352C10.3307 3.07696 -2.02013 10.0207 5.19934 21.6406C12.4188 33.2604 9.91421 41.108 11.5636 43.8249C13.2185 46.5418 18.0278 48.3548 20.1159 38.8457C20.599 36.6461 21.0822 35.0786 21.5376 33.9658C21.5487 33.9501 22.9648 31.9124 24.4198 33.9658C24.8752 35.0786 25.3583 36.6461 25.8415 38.8457C27.9296 48.3548 32.7388 46.5418 34.3938 43.8249C36.0487 41.108 33.5441 33.2604 40.758 21.6406C47.9719 10.0232 36.0327 2.78977 29.529 7.41352Z" fill="#38D36A"/>
</g>
<g id="cross">
<circle id="Ellipse 2079" cx="39" cy="27" r="11.2" fill="#5076FF" stroke="white" stroke-width="1.6"/>
<path id="Union" fill-rule="evenodd" clip-rule="evenodd" d="M41.25 21H36.75V24.7422L33 24.7422V29.2422H36.75V33H41.25V29.2422H45V24.7422L41.25 24.7422V21Z" fill="white"/>
</g>
</g>
</g>
</svg>
