<svg width="52" height="52" viewBox="0 0 52 52" fill="none" xmlns="http://www.w3.org/2000/svg">
<g id="ic/visual/32/category_health" clip-path="url(#clip0_5702_190377)">
<g id="Group 1261157224">
<g id="Group 1261157166">
<path id="Rectangle 8453" d="M27.1813 12.7428C31.9892 7.86089 39.7843 7.86089 44.5922 12.7428C49.4001 17.6247 49.4001 25.5399 44.5922 30.4218L33.0362 42.1557L15.6253 24.4768L27.1813 12.7428Z" fill="#69F8AF"/>
<path id="Rectangle 8452" d="M7.40076 30.6168C2.59287 25.7349 2.59287 17.8198 7.40076 12.9379C12.2087 8.05593 20.0038 8.05594 24.8117 12.9379L43.3108 31.7218L28.3957 46.8665C27.0173 48.2661 24.7824 48.2661 23.404 46.8665L7.40076 30.6168Z" fill="#38D36A"/>
</g>
<path id="Intersect" fill-rule="evenodd" clip-rule="evenodd" d="M7.16916 31.7264C6.85958 31.0476 6.57923 30.3418 6.32812 29.6139H11.4313L15.2611 20.6753C15.769 19.4897 17.4805 19.5855 17.8531 20.8202L21.1428 31.7232L24.0977 24.7279C24.5729 23.6028 26.1672 23.6028 26.6425 24.7279L28.7064 29.6139H33.2777C33.8611 29.6139 34.334 30.0868 34.334 30.6702C34.334 31.2535 33.8611 31.7264 33.2777 31.7264H28.2215C27.6663 31.7264 27.1651 31.394 26.9491 30.8826L25.3701 27.1446L22.3003 34.4117C21.7971 35.603 20.0792 35.5113 19.7056 34.2732L16.4113 23.3548L13.1832 30.8891C12.9656 31.3971 12.4662 31.7264 11.9136 31.7264H7.16916Z" fill="white"/>
</g>
</g>
<defs>
<clipPath id="clip0_5702_190377">
<rect width="52" height="52" fill="white"/>
</clipPath>
</defs>
</svg>
