<svg width="52" height="52" viewBox="0 0 52 52" fill="none" xmlns="http://www.w3.org/2000/svg">
<path d="M5.5 37.5311C5.5 35.5138 7.00215 33.8122 9.00386 33.562L13.5 33V47H7.5C6.39543 47 5.5 46.1046 5.5 45V37.5311Z" fill="#38D36A"/>
<path d="M38.5 33L42.9961 33.562C44.9979 33.8122 46.5 35.5138 46.5 37.5311V45C46.5 46.1046 45.6046 47 44.5 47H38.5V33Z" fill="#38D36A"/>
<rect x="16.5" y="4" width="5" height="15" rx="1" fill="#69F8AF"/>
<rect x="29.5" y="4" width="5" height="15" rx="1" fill="#69F8AF"/>
<path d="M10.5 10C10.5 8.89543 11.3954 8 12.5 8H38.5C39.6046 8 40.5 8.89543 40.5 10V47H10.5V10Z" fill="#69F8AF"/>
<path d="M8.5 11C8.5 8.79086 10.2909 7 12.5 7H38.5C40.7091 7 42.5 8.79086 42.5 11V21C42.5 22.1046 41.6046 23 40.5 23H10.5C9.39543 23 8.5 22.1046 8.5 21V11Z" fill="#38D36A"/>
<rect x="16.5" y="7" width="4" height="40" fill="white"/>
<rect x="30.5" y="7" width="4" height="40" fill="white"/>
<rect x="16.5" y="19" width="4" height="5" rx="0.5" fill="#5076FF"/>
<rect x="30.5" y="19" width="4" height="5" rx="0.5" fill="#5076FF"/>
</svg>
