<svg width="52" height="52" viewBox="0 0 52 52" fill="none" xmlns="http://www.w3.org/2000/svg">
<g id="ic/visual/32/category_fire">
<g id="ic">
<g id="Group 1261157177">
<path id="Union" d="M44.24 24.1952C44.24 22.7645 43.6115 21.406 42.521 20.4797L24.172 4.89361C23.5653 4.37828 22.6747 4.37828 22.068 4.8936L3.71896 20.4797C2.62851 21.406 2 22.7645 2 24.1952V32.9797L23.12 31.84L44.24 32.9797V24.1952Z" fill="#38D36A"/>
<path id="Subtract" fill-rule="evenodd" clip-rule="evenodd" d="M24.1723 13.1707L44.24 30.2169V46.5319C44.24 47.4294 43.5125 48.1569 42.615 48.1569H28.88V38.5571C28.88 35.3759 26.3012 32.7971 23.12 32.7971C19.9388 32.7971 17.36 35.3759 17.36 38.5571V48.1569H3.625C2.72754 48.1569 2 47.4294 2 46.5319V30.2169L22.0683 13.1707C22.6749 12.6553 23.5656 12.6554 24.1723 13.1707Z" fill="#69F8AF"/>
</g>
<path id="Vector 789" d="M41.5755 17.2073C43.7205 11.091 39.3039 5.85396 36.8274 4C17.4167 19.1387 26.2786 28.2278 33.1358 30.88C30.1826 26.417 32.5954 22.1907 34.1709 20.6354C34.1273 27.7356 40.581 30.4236 43.8133 30.88C53.4012 24.3072 49.7424 15.6987 46.7145 12.216C46.2229 15.0033 43.0837 16.7049 41.5755 17.2073Z" fill="#5076FF"/>
</g>
</g>
</svg>
