<svg width="52" height="52" viewBox="0 0 52 52" fill="none" xmlns="http://www.w3.org/2000/svg">
<path d="M38.5 12.5C40.9853 12.5 43 10.4853 43 8C43 5.51472 40.9853 3.5 38.5 3.5C36.0147 3.5 34 5.51472 34 8C34 10.4853 36.0147 12.5 38.5 12.5Z" fill="#38D36A"/>
<path d="M12.75 20C12.0596 20 11.5 20.5596 11.5 21.25V23.5H8.25C7.55964 23.5 7 24.0596 7 24.75C7 25.4404 7.55964 26 8.25 26H11.5V28.25C11.5 28.9404 12.0596 29.5 12.75 29.5C13.4404 29.5 14 28.9404 14 28.25V26H28.4996V23.5H14V21.25C14 20.5596 13.4404 20 12.75 20Z" fill="#69F8AF"/>
<path d="M17.2308 27.5H28.0769L25.8462 28L30.2411 31.928C31.197 32.7823 31.2408 34.2638 30.3369 35.173L21.1078 44.457C20.0325 45.5388 18.2505 45.4257 17.3206 44.2167C16.561 43.2293 16.6363 41.8353 17.4977 40.9354L24.6154 33.5L17.2308 27.5Z" fill="#38D36A"/>
<path d="M4 48H40.6667C42.8304 48 44.9357 47.2982 46.6667 46L48 45" stroke="#5076FF" stroke-width="3.5" stroke-linecap="round"/>
<path d="M29.5499 12.1887C30.4593 11.4632 31.7061 11.3289 32.7491 11.844L36.2312 13.5636C37.0013 13.9439 37.4426 14.7733 37.3277 15.6244L36.44 22.2H41.6C42.9255 22.2 44 23.2745 44 24.6C44 25.9255 42.9255 27 41.6 27H32.7846C31.0597 27 29.7799 25.4003 30.1586 23.7175L30.5 22.2H18.4286C17.9556 22.2 17.747 21.6041 18.1168 21.3091L29.5499 12.1887Z" fill="#38D36A"/>
<path d="M45 23.5H46.75C47.4404 23.5 48 24.0596 48 24.75C48 25.4404 47.4404 26 46.75 26H45V23.5Z" fill="#69F8AF"/>
</svg>
