<svg width="52" height="52" viewBox="0 0 52 52" fill="none" xmlns="http://www.w3.org/2000/svg">
<g id="ic/visual/52/kickboard">
<g id="ico">
<path id="Vector 843" d="M30 5H38.5L42.3028 32" stroke="#38D36A" stroke-width="3" stroke-linecap="round" stroke-linejoin="round"/>
<path id="Vector 845" d="M40.7185 41.054L41.0225 43.5354L45.9854 42.9275L45.6815 40.446L40.7185 41.054ZM43.2315 20.446C43.0636 19.0756 41.8165 18.1007 40.446 18.2685C39.0756 18.4364 38.1007 19.6835 38.2685 21.054L43.2315 20.446ZM45.6815 40.446L43.2315 20.446L38.2685 21.054L40.7185 41.054L45.6815 40.446Z" fill="#5076FF"/>
<g id="Group 1261157538">
<circle id="Ellipse 2080" cx="44" cy="41" r="7" fill="#38D36A"/>
<circle id="Ellipse 2082" cx="44" cy="41" r="3" fill="white"/>
</g>
<path id="Vector 844" d="M41 26.5C38.2663 30.21 32 41 32 41H11" stroke="#5076FF" stroke-width="4" stroke-linecap="round" stroke-linejoin="round"/>
<g id="Group 1261157537">
<circle id="Ellipse 2080_2" cx="11" cy="41" r="7" fill="#38D36A"/>
<path id="Ellipse 2083" d="M1 41C1 35.4772 5.47715 31 11 31" stroke="#38D36A" stroke-width="2" stroke-linecap="round"/>
<circle id="Ellipse 2082_2" cx="11" cy="41" r="3" fill="white"/>
</g>
</g>
</g>
</svg>
