<svg width="52" height="52" viewBox="0 0 52 52" fill="none" xmlns="http://www.w3.org/2000/svg">
<circle cx="20.5" cy="10" r="8" fill="#38D36A"/>
<path d="M3 37.5C3 27.835 10.835 20 20.5 20C30.165 20 38 27.835 38 37.5V41.5686C38 41.8069 37.8069 42 37.5686 42H3.43137C3.19313 42 3 41.8069 3 41.5686V37.5Z" fill="#38D36A"/>
<path d="M23.9611 27.5473L23.9613 27.5472C23.9613 27.5472 23.9612 27.5472 23.9611 27.5473L23.942 27.4925L23.9611 27.5473ZM24 27.5337L28.3984 25.9988C30.1448 25.3893 31.7976 24.5394 33.3093 23.4735L36.1755 21.4524C36.3618 21.3211 36.6112 21.3236 36.7948 21.4588L39.2516 23.2674C40.8831 24.4684 42.6905 25.4098 44.6098 26.0582L49 27.5412C48.9857 35.2573 45.0248 42.4311 38.4999 46.5536L37.1001 47.438C36.7335 47.6696 36.2665 47.6696 35.8999 47.438L34.5058 46.5572C27.9772 42.4323 24.0141 35.2543 24 27.5337Z" fill="#5076FF" stroke="white" stroke-width="2" stroke-linejoin="round"/>
<path d="M40.5 32L35.9199 37L33 34.3941" stroke="white" stroke-width="2.5" stroke-linecap="round" stroke-linejoin="round"/>
</svg>
