<svg width="52" height="52" viewBox="0 0 52 52" fill="none" xmlns="http://www.w3.org/2000/svg">
<path fill-rule="evenodd" clip-rule="evenodd" d="M18.7813 7C16.9863 7 15.5312 8.45508 15.5312 10.25V18.5135H34.7204V10.25C34.7204 8.45507 33.2653 7 31.4704 7H18.7813ZM20.1789 10.3545C19.7302 10.3545 19.3664 10.7183 19.3664 11.167V18.0302H30.8799V11.167C30.8799 10.7183 30.5161 10.3545 30.0674 10.3545H20.1789Z" fill="#38D36A"/>
<path d="M27.2054 24.2636C27.1156 24.2636 27.0429 24.1909 27.0429 24.1011V20.5883C27.0429 20.4985 26.9701 20.4258 26.8804 20.4258H23.3675C23.2778 20.4258 23.205 20.4985 23.205 20.5883L23.205 24.1011C23.205 24.1909 23.1323 24.2636 23.0425 24.2636H19.5297C19.4399 24.2636 19.3672 24.3364 19.3672 24.4261V27.9389C19.3672 28.0287 19.4399 28.1014 19.5297 28.1014H23.0425C23.1323 28.1014 23.205 28.1742 23.205 28.2639L23.205 31.7768C23.205 31.8665 23.2778 31.9393 23.3675 31.9393H26.8804C26.9701 31.9393 27.0429 31.8665 27.0429 31.7768V28.2639C27.0429 28.1742 27.1156 28.1014 27.2054 28.1014H30.7182C30.8079 28.1014 30.8807 28.0287 30.8807 27.9389V24.4261C30.8807 24.3364 30.8079 24.2636 30.7182 24.2636H27.2054Z" fill="white"/>
<path d="M4.00391 18.1328C4.00391 15.4404 6.18652 13.2578 8.87891 13.2578H43.264C45.9564 13.2578 48.139 15.4404 48.139 18.1328V43.764C48.139 44.6614 47.4115 45.389 46.514 45.389H5.6289C4.73144 45.389 4.00391 44.6614 4.00391 43.764V18.1328Z" fill="#38D36A"/>
<path d="M28.0769 31.1053C27.9872 31.1053 27.9144 31.0325 27.9144 30.9428V27.6977C27.9144 27.6079 27.8417 27.5352 27.7519 27.5352H24.399C24.3093 27.5352 24.2365 27.6079 24.2365 27.6977L24.2365 30.9428C24.2365 31.0325 24.1638 31.1053 24.074 31.1053H20.7211C20.6313 31.1053 20.5586 31.178 20.5586 31.2678V34.5129C20.5586 34.6027 20.6313 34.6754 20.7211 34.6754H24.074C24.1638 34.6754 24.2365 34.7482 24.2365 34.8379L24.2365 38.083C24.2365 38.1728 24.3093 38.2455 24.399 38.2455H27.7519C27.8417 38.2455 27.9144 38.1728 27.9144 38.083V34.8379C27.9144 34.7482 27.9872 34.6754 28.0769 34.6754H31.4299C31.5196 34.6754 31.5924 34.6027 31.5924 34.5129V31.2678C31.5924 31.178 31.5196 31.1053 31.4299 31.1053H28.0769Z" fill="white"/>
<path d="M4.00391 18.1328C4.00391 15.4404 6.18652 13.2578 8.87891 13.2578H43.264C45.9564 13.2578 48.139 15.4404 48.139 18.1328V23.9682H4.00391V18.1328Z" fill="#69F8AF"/>
</svg>
