<svg width="52" height="52" viewBox="0 0 52 52" fill="none" xmlns="http://www.w3.org/2000/svg">
<circle cx="27.5" cy="28" r="22" fill="#38D36A"/>
<circle cx="27.5" cy="28" r="15.5" stroke="white" stroke-width="3"/>
<circle cx="27.5" cy="28" r="8.5" stroke="#69F8AF" stroke-width="3"/>
<circle cx="27.5" cy="28" r="3" fill="#69F8AF"/>
<path d="M10.5 11L27.5 28" stroke="#5076FF" stroke-width="1.5" stroke-linecap="round"/>
<path d="M2.06087 6.95683C1.94384 6.8398 2.00447 6.63955 2.16676 6.60709L5.1117 6.01811C5.31678 5.97709 5.47709 5.81678 5.51811 5.6117L6.10709 2.66676C6.13955 2.50447 6.33979 2.44384 6.45683 2.56087L11.8483 7.9523C11.9707 8.07478 12.0239 8.25037 11.9899 8.42023L11.3794 11.473C11.3384 11.6781 11.1781 11.8384 10.973 11.8794L7.92023 12.4899C7.75037 12.5239 7.57478 12.4707 7.4523 12.3483L2.06087 6.95683Z" fill="#5076FF"/>
</svg>
