<svg width="24" height="24" viewBox="0 0 24 24" fill="none" xmlns="http://www.w3.org/2000/svg">
<circle cx="12" cy="12" r="12" fill="url(#paint0_radial_7571_17191)"/>
<circle cx="12" cy="12" r="12" fill="url(#paint1_radial_7571_17191)"/>
<path d="M12.0002 5.60501C14.0841 5.60501 14.3287 5.6143 15.1524 5.65146C15.9141 5.68552 16.326 5.81248 16.6016 5.92085C16.9669 6.06329 17.227 6.2305 17.4995 6.50299C17.772 6.77548 17.9423 7.03558 18.0817 7.40097C18.1869 7.67655 18.317 8.08838 18.3511 8.85011C18.3882 9.67377 18.3975 9.91839 18.3975 12.0023C18.3975 14.0862 18.3882 14.3309 18.3511 15.1545C18.317 15.9163 18.19 16.3281 18.0817 16.6037C17.9392 16.969 17.772 17.2292 17.4995 17.5016C17.227 17.7741 16.9669 17.9444 16.6016 18.0838C16.326 18.1891 15.9141 18.3191 15.1524 18.3532C14.3287 18.3903 14.0841 18.3996 12.0002 18.3996C9.91628 18.3996 9.67166 18.3903 8.848 18.3532C8.08627 18.3191 7.67443 18.1922 7.39885 18.0838C7.03347 17.9413 6.77336 17.7741 6.50087 17.5016C6.22838 17.2292 6.05808 16.969 5.91874 16.6037C5.81346 16.3281 5.6834 15.9163 5.64934 15.1545C5.61219 14.3309 5.6029 14.0862 5.6029 12.0023C5.6029 9.91839 5.61219 9.67377 5.64934 8.85011C5.6834 8.08838 5.81036 7.67655 5.91874 7.40097C6.06117 7.03558 6.22838 6.77548 6.50087 6.50299C6.77336 6.2305 7.03347 6.0602 7.39885 5.92085C7.67443 5.81557 8.08627 5.68552 8.848 5.65146C9.67166 5.61121 9.91938 5.60501 12.0002 5.60501ZM12.0002 4.19922C9.88222 4.19922 9.61592 4.20851 8.78297 4.24567C7.95312 4.28282 7.38646 4.41597 6.89103 4.60795C6.37701 4.80613 5.94351 5.07552 5.51 5.50902C5.0765 5.94253 4.8102 6.37913 4.60893 6.89005C4.41695 7.38548 4.2838 7.95214 4.24664 8.78509C4.20948 9.61494 4.2002 9.88124 4.2002 11.9992C4.2002 14.1172 4.20948 14.3835 4.24664 15.2164C4.2838 16.0463 4.41695 16.613 4.60893 17.1115C4.8071 17.6255 5.0765 18.059 5.51 18.4925C5.94351 18.926 6.38011 19.1923 6.89103 19.3936C7.38646 19.5856 7.95312 19.7187 8.78607 19.7559C9.61902 19.793 9.88222 19.8023 12.0033 19.8023C14.1244 19.8023 14.3876 19.793 15.2205 19.7559C16.0504 19.7187 16.617 19.5856 17.1156 19.3936C17.6296 19.1954 18.0631 18.926 18.4966 18.4925C18.9301 18.059 19.1964 17.6224 19.3977 17.1115C19.5897 16.6161 19.7228 16.0494 19.76 15.2164C19.7971 14.3835 19.8064 14.1203 19.8064 11.9992C19.8064 9.87814 19.7971 9.61494 19.76 8.78199C19.7228 7.95214 19.5897 7.38548 19.3977 6.88695C19.1995 6.37294 18.9301 5.93943 18.4966 5.50593C18.0631 5.07242 17.6265 4.80613 17.1156 4.60486C16.6201 4.41287 16.0535 4.27973 15.2205 4.24257C14.3845 4.20851 14.1182 4.19922 12.0002 4.19922Z" fill="white"/>
<path d="M12 7.99609C9.78911 7.99609 7.99316 9.78895 7.99316 12.0029C7.99316 14.2169 9.78602 16.0097 12 16.0097C14.214 16.0097 16.0068 14.2169 16.0068 12.0029C16.0068 9.78895 14.214 7.99609 12 7.99609ZM12 14.6009C10.5632 14.6009 9.39896 13.4366 9.39896 11.9998C9.39896 10.5631 10.5632 9.39879 12 9.39879C13.4368 9.39879 14.601 10.5631 14.601 11.9998C14.601 13.4366 13.4368 14.6009 12 14.6009Z" fill="white"/>
<path d="M16.1646 8.77066C16.6811 8.77066 17.0998 8.35198 17.0998 7.83552C17.0998 7.31906 16.6811 6.90039 16.1646 6.90039C15.6482 6.90039 15.2295 7.31906 15.2295 7.83552C15.2295 8.35198 15.6482 8.77066 16.1646 8.77066Z" fill="white"/>
<defs>
<radialGradient id="paint0_radial_7571_17191" cx="0" cy="0" r="1" gradientUnits="userSpaceOnUse" gradientTransform="translate(20.28 27.24) rotate(-115.776) scale(32.7284 48.6798)">
<stop offset="0.24392" stop-color="#FF1B90"/>
<stop offset="0.436673" stop-color="#F80261"/>
<stop offset="0.688476" stop-color="#ED00C0"/>
<stop offset="0.776787" stop-color="#C500E9"/>
<stop offset="0.893155" stop-color="#7017FF"/>
</radialGradient>
<radialGradient id="paint1_radial_7571_17191" cx="0" cy="0" r="1" gradientUnits="userSpaceOnUse" gradientTransform="translate(8.7 23.172) rotate(-57.4396) scale(14.1809 14.7502)">
<stop stop-color="#FFD600"/>
<stop offset="0.484375" stop-color="#FF6930"/>
<stop offset="0.734375" stop-color="#FE3B36"/>
<stop offset="1" stop-color="#FE3B36" stop-opacity="0"/>
</radialGradient>
</defs>
</svg>
