<svg width="24" height="24" viewBox="0 0 24 24" fill="none" xmlns="http://www.w3.org/2000/svg">
<g clip-path="url(#clip0_7571_17192)">
<circle cx="12" cy="12" r="12" fill="#42CD53"/>
<path d="M16.7528 6H7.24221C5.89611 6 4.7998 7.12511 4.7998 8.49605V14.5376C4.7998 15.9133 5.90074 17.0337 7.24221 17.0337H10.6005L11.1787 18.0548L11.7477 19.0617C11.8495 19.2461 12.1085 19.2461 12.2149 19.0617L12.7839 18.0548L13.3621 17.0337H16.7574C18.1035 17.0337 19.1998 15.9086 19.1998 14.5376V8.50078C19.1998 7.12511 18.0989 6 16.7528 6Z" fill="white"/>
<path d="M12.7087 10.4453C11.9228 10.4453 11.2852 11.0275 11.2852 11.7472C11.2852 12.4669 11.9228 13.0491 12.7087 13.0491C13.4946 13.0491 14.1322 12.4669 14.1322 11.7472C14.1322 11.0275 13.4995 10.4453 12.7087 10.4453ZM12.7087 12.3707C12.333 12.3707 12.0266 12.091 12.0266 11.7472C12.0266 11.4034 12.333 11.1238 12.7087 11.1238C13.0843 11.1238 13.3908 11.4034 13.3908 11.7472C13.3908 12.091 13.0893 12.3707 12.7087 12.3707Z" fill="#01E266"/>
<path d="M8.20602 10.4453C7.89957 10.4453 7.61288 10.5553 7.39046 10.7433V9.66602H6.59961V12.9895H7.39046V12.7557C7.61288 12.9391 7.89462 13.0537 8.20602 13.0537C8.91284 13.0537 9.4862 12.4715 9.4862 11.7518C9.4862 11.0321 8.91778 10.4453 8.20602 10.4453ZM8.04785 12.3982C7.75622 12.3982 7.50414 12.2377 7.3954 12.0039C7.3608 11.926 7.33609 11.8389 7.33609 11.7472C7.33609 11.6555 7.35586 11.5684 7.3954 11.4905C7.50414 11.2567 7.75622 11.0963 8.04785 11.0963C8.44327 11.0963 8.75961 11.3851 8.75961 11.7472C8.75961 12.1094 8.44327 12.3982 8.04785 12.3982Z" fill="#01E266"/>
<path d="M16.5989 10.4996V10.7059C16.3764 10.5455 16.0996 10.4492 15.8031 10.4492C15.0765 10.4492 14.4883 11.0131 14.4883 11.7053C14.4883 12.3975 15.0765 12.9613 15.8031 12.9613C16.1046 12.9613 16.3814 12.8651 16.5989 12.7046V13.053C16.5989 13.053 16.5198 13.3968 15.9662 13.3968V14.0432C15.9662 14.0432 16.5643 14.1074 17.0981 13.6123C17.0981 13.6123 17.3452 13.3693 17.3996 13.0484V10.4996H16.5989ZM15.9513 12.3425C15.551 12.3425 15.2297 12.0537 15.2297 11.7007C15.2297 11.3477 15.5559 11.0589 15.9513 11.0589C16.2331 11.0589 16.4802 11.2056 16.5989 11.4165C16.6483 11.5036 16.673 11.5998 16.673 11.7007C16.673 11.8015 16.6433 11.9024 16.5989 11.9849C16.4802 12.2004 16.2331 12.3425 15.9513 12.3425Z" fill="#01E266"/>
<path d="M9.5752 9.60221V10.2669C9.5752 10.2669 9.94096 10.3128 10.0102 10.6428V12.9899H10.8257V10.6428V10.6245C10.7763 10.2944 10.5638 10.0469 10.5638 10.0469C10.0991 9.53804 9.5752 9.60221 9.5752 9.60221Z" fill="#01E266"/>
</g>
<defs>
<clipPath id="clip0_7571_17192">
<rect width="24" height="24" fill="white"/>
</clipPath>
</defs>
</svg>
